Coordinates
version=1
nRows=17
nColumns=40
inDegrees=yes

Units are S.I. units (second, meters, Newtons, ...)
If the header above contains a line with 'inDegrees', this indicates whether rotational values are in degrees (yes) or radians (no).

endheader
time	pelvis_tilt	pelvis_list	pelvis_rotation	pelvis_tx	pelvis_ty	pelvis_tz	hip_flexion_r	hip_adduction_r	hip_rotation_r	knee_angle_r	knee_angle_r_beta	ankle_angle_r	subtalar_angle_r	mtp_angle_r	hip_flexion_l	hip_adduction_l	hip_rotation_l	knee_angle_l	knee_angle_l_beta	ankle_angle_l	subtalar_angle_l	mtp_angle_l	lumbar_extension	lumbar_bending	lumbar_rotation	arm_flex_r	arm_add_r	arm_rot_r	elbow_flex_r	pro_sup_r	wrist_flex_r	wrist_dev_r	arm_flex_l	arm_add_l	arm_rot_l	elbow_flex_l	pro_sup_l	wrist_flex_l	wrist_dev_l
      0.89000000	      0.85355338	      8.10575269	     -2.03053025	      0.61355111	      0.94144778	      0.17063622	     23.00105576	    -18.26353863	     -9.05653314	     66.27683328	      1.15674896	     -3.86354455	    -10.77450641	      0.00000000	     -0.94879319	      9.22828003	    -21.61632055	      7.19252023	      0.12553316	      1.85062395	      8.99371679	      0.00000000	     -1.60907507	    -12.30204974	     -0.24866222	     42.40283937	    -15.59717559	     42.40283937	     75.48784120	     44.99717646	      0.00000000	      0.00000000	     42.40283937	    -15.59717559	     42.40283937	     75.48784120	     44.99717646	      0.00000000	      0.00000000
      0.89500000	      0.78095469	      8.19421958	     -1.77245378	      0.61951967	      0.94173970	      0.17027540	     23.64121575	    -18.11564217	     -9.11820956	     65.38837739	      1.14124248	     -3.58607817	    -10.68693779	      0.00000000	     -1.33828714	      9.32729829	    -21.59304149	      7.13447765	      0.12452013	      1.91705803	      9.15479858	      0.00000000	     -1.63449696	    -12.43679878	     -0.30054795	     42.40329258	    -15.59700345	     42.40329258	     75.48756583	     44.99718089	      0.00000000	      0.00000000	     42.40329258	    -15.59700345	     42.40329258	     75.48756583	     44.99718089	      0.00000000	      0.00000000
      0.90000000	      1.36937313	      7.24092709	     -1.01164904	      0.62591718	      0.94384390	      0.16838457	     22.69447689	    -17.12535469	    -10.32608292	     63.70082143	      1.11178907	     -2.90876816	     -9.99899440	      0.00000000	     -2.74943032	      8.40489591	    -20.73538854	      6.63076974	      0.11572876	      1.93252174	      9.85312670	      0.00000000	     -2.56784500	    -11.24837162	     -1.42452543	     42.41559925	    -15.59233543	     42.41559925	     75.48012613	     44.99729872	      0.00000000	      0.00000000	     42.41559925	    -15.59233543	     42.41559925	     75.48012613	     44.99729872	      0.00000000	      0.00000000
      0.90500000	      1.25404682	      7.36651143	     -0.78421231	      0.63197518	      0.94388749	      0.16815990	     23.34841022	    -17.01978662	    -10.36572085	     62.71948652	      1.09466154	     -2.63865354	     -9.90248755	      0.00000000	     -3.09642346	      8.52501173	    -20.69400140	      6.56785722	      0.11463073	      2.00095866	     10.02758009	      0.00000000	     -2.49790071	    -11.42654633	     -1.44977888	     42.41611804	    -15.59213900	     42.41611804	     75.47981436	     44.99730359	      0.00000000	      0.00000000	     42.41611804	    -15.59213900	     42.41611804	     75.47981436	     44.99730359	      0.00000000	      0.00000000
      0.91000000	      1.61773979	      6.69512392	     -0.16329107	      0.63830871	      0.94526008	      0.16670892	     22.83002934	    -16.23665084	    -11.21839742	     61.07915114	      1.06603229	     -2.05619297	     -9.27177410	      0.00000000	     -4.19959110	      7.85954016	    -19.99263605	      6.09367587	      0.10635471	      1.98488947	     10.58080157	      0.00000000	     -3.09892934	    -10.57049733	     -2.26069249	     42.42797266	    -15.58765667	     42.42797266	     75.47272542	     44.99741277	      0.00000000	      0.00000000	     42.42797266	    -15.58765667	     42.42797266	     75.47272542	     44.99741277	      0.00000000	      0.00000000
      0.91500000	      1.47987028	      6.84005521	      0.06577822	      0.64441773	      0.94512871	      0.16649232	     23.44269169	    -16.15623588	    -11.23804087	     59.96935910	      1.04666277	     -1.79419456	     -9.14331621	      0.00000000	     -4.52710275	      7.99191476	    -19.91426666	      6.02897013	      0.10522538	      2.05673910	     10.77576055	      0.00000000	     -2.99628034	    -10.77860893	     -2.28588732	     42.42864555	    -15.58740268	     42.42864555	     75.47232531	     44.99741885	      0.00000000	      0.00000000	     42.42864555	    -15.58740268	     42.42864555	     75.47232531	     44.99741885	      0.00000000	      0.00000000
      0.92000000	      1.49477311	      6.56142274	      0.40878543	      0.65074465	      0.94542624	      0.16579070	     23.59251557	    -15.66369291	    -11.54297210	     58.53666001	      1.02165745	     -1.16355791	     -8.50430103	      0.00000000	     -5.18520740	      7.71781666	    -19.58698670	      5.61896627	      0.09806946	      2.04330848	     11.31697150	      0.00000000	     -3.08972514	    -10.40825307	     -2.62987259	     42.43195216	    -15.58615494	     42.43195216	     75.47036156	     44.99744856	      0.00000000	      0.00000000	     42.43195216	    -15.58615494	     42.43195216	     75.47036156	     44.99744856	      0.00000000	      0.00000000
      0.92500000	      1.90462874	      6.07027928	      1.05636447	      0.65690828	      0.94660299	      0.16437834	     23.00079367	    -15.10868037	    -12.39874668	     56.71531211	      0.98986893	     -1.01215712	     -8.20213148	      0.00000000	     -6.19705866	      7.17498875	    -18.93418816	      5.39513068	      0.09416279	      2.10850338	     11.54124876	      0.00000000	     -3.74321515	     -9.74617643	     -3.35486290	     42.43939519	    -15.58334999	     42.43939519	     75.46596108	     44.99751439	      0.00000000	      0.00000000	     42.43939519	    -15.58334999	     42.43939519	     75.46596108	     44.99751439	      0.00000000	      0.00000000
      0.93000000	      1.73431817	      6.26583162	      1.29775847	      0.66302039	      0.94620927	      0.16415973	     23.56554914	    -15.11017249	    -12.41409545	     55.43951689	      0.96760211	     -0.82931017	     -8.11732849	      0.00000000	     -6.47701153	      7.34821078	    -18.80946998	      5.35187439	      0.09340783	      2.19318462	     11.71594665	      0.00000000	     -3.61710944	    -10.00904829	     -3.40394248	     42.44016466	    -15.58306038	     42.44016466	     75.46550808	     44.99752109	      0.00000000	      0.00000000	     42.44016466	    -15.58306038	     42.44016466	     75.46550808	     44.99752109	      0.00000000	      0.00000000
      0.93500000	      2.08173014	      5.71764361	      1.91571469	      0.66927404	      0.94713818	      0.16272939	     22.98366817	    -14.45858903	    -13.21805850	     53.47599378	      0.93333216	     -0.66465827	     -7.81768235	      0.00000000	     -7.46249563	      6.74954737	    -18.14102540	      4.99645250	      0.08720455	      2.19835430	     11.93865443	      0.00000000	     -4.15781599	     -9.24942986	     -4.16275689	     42.44912289	    -15.57969230	     42.44912289	     75.46025417	     44.99759807	      0.00000000	      0.00000000	     42.44912289	    -15.57969230	     42.44912289	     75.46025417	     44.99759807	      0.00000000	      0.00000000
      0.94000000	      2.12789265	      5.58838122	      2.34165543	      0.67543916	      0.94720620	      0.16191459	     23.00321326	    -14.18997051	    -13.59806079	     51.79925292	      0.90406751	     -0.54470560	     -7.67613269	      0.00000000	     -8.03987689	      6.58189090	    -17.72101671	      4.80579348	      0.08387692	      2.24830919	     12.08310560	      0.00000000	     -4.30840859	     -9.04577510	     -4.54430316	     42.45850355	    -15.57617401	     42.45850355	     75.45479849	     44.99767630	      0.00000000	      0.00000000	     42.45850355	    -15.57617401	     42.45850355	     75.45479849	     44.99767630	      0.00000000	      0.00000000
      0.94500000	      1.93899735	      5.86496689	      2.55497967	      0.68172321	      0.94646899	      0.16163353	     23.54504093	    -14.36507458	    -13.68869044	     50.49330522	      0.88127443	     -0.37811025	     -7.61251523	      0.00000000	     -8.31252283	      6.84984341	    -17.72367956	      4.76035795	      0.08308392	      2.41655158	     12.18927159	      0.00000000	     -4.12124504	     -9.35016297	     -4.49805704	     42.45896422	    -15.57600148	     42.45896422	     75.45453183	     44.99768008	      0.00000000	      0.00000000	     42.45896422	    -15.57600148	     42.45896422	     75.45453183	     44.99768008	      0.00000000	      0.00000000
      0.95000000	      2.15646567	      5.43556173	      3.07444264	      0.68784096	      0.94692385	      0.16050915	     23.10725811	    -13.74866700	    -14.20619190	     48.37741324	      0.84434514	     -0.28670796	     -7.34547606	      0.00000000	     -9.09633278	      6.34148842	    -17.09698380	      4.49693589	      0.07848634	      2.43413416	     12.48164409	      0.00000000	     -4.51027114	     -8.74778371	     -5.11779848	     42.46635164	    -15.57323644	     42.46635164	     75.45026549	     44.99774016	      0.00000000	      0.00000000	     42.46635164	    -15.57323644	     42.46635164	     75.45026549	     44.99774016	      0.00000000	      0.00000000
      0.95500000	      1.93706019	      5.72311749	      3.32552943	      0.69396641	      0.94609368	      0.16020686	     23.59545110	    -13.91218542	    -14.23548221	     46.90498531	      0.81864643	     -0.15945168	     -7.27204985	      0.00000000	     -9.31735609	      6.60948096	    -16.93734641	      4.47613968	      0.07812338	      2.54416696	     12.65990392	      0.00000000	     -4.34364336	     -9.08558754	     -5.16518613	     42.46730184	    -15.57288126	     42.46730184	     75.44971918	     44.99774777	      0.00000000	      0.00000000	     42.46730184	    -15.57288126	     42.46730184	     75.44971918	     44.99774777	      0.00000000	      0.00000000
      0.96000000	      1.73133755	      5.94095519	      3.58768409	      0.70013193	      0.94526717	      0.15980409	     23.99866196	    -14.00932494	    -14.30627050	     45.32887366	      0.79113809	     -0.02369168	     -7.17065171	      0.00000000	     -9.57173430	      6.80807656	    -16.76407046	      4.42082593	      0.07715797	      2.64556537	     12.84428959	      0.00000000	     -4.19298185	     -9.32537851	     -5.27725821	     42.46835153	    -15.57248900	     42.46835153	     75.44911619	     44.99775615	      0.00000000	      0.00000000	     42.46835153	    -15.57248900	     42.46835153	     75.44911619	     44.99775615	      0.00000000	      0.00000000
      0.96500000	      1.54577560	      6.15893893	      3.84585102	      0.70637003	      0.94439049	      0.15934448	     24.35701466	    -14.13671444	    -14.44337819	     43.73765643	      0.76336611	      0.10038336	     -7.08876544	      0.00000000	     -9.85627310	      7.01099479	    -16.62300001	      4.36277453	      0.07614478	      2.77979589	     13.00379772	      0.00000000	     -4.03869379	     -9.54372238	     -5.35995203	     42.46922559	    -15.57216245	     42.46922559	     75.44861454	     44.99776310	      0.00000000	      0.00000000	     42.46922559	    -15.57216245	     42.46922559	     75.44861454	     44.99776310	      0.00000000	      0.00000000
      0.97000000	      2.08571454	      5.40597296	      4.54175939	      0.71251976	      0.94529684	      0.15752746	     23.22928428	    -13.27385443	    -15.46830384	     41.10193188	      0.71736404	     -0.30180079	     -7.30210183	      0.00000000	    -10.96580988	      6.10528793	    -15.90637483	      4.09118539	      0.07140466	      2.87416280	     13.04232042	      0.00000000	     -4.79288134	     -8.42662691	     -6.34155324	     42.48029644	    -15.56803218	     42.48029644	     75.44229192	     44.99784962	      0.00000000	      0.00000000	     42.48029644	    -15.56803218	     42.48029644	     75.44229192	     44.99784962	      0.00000000	      0.00000000
